# xmcd CD database file
#
# Track frame offsets:
#	150
#	18051
#	38472
#	54815
#	108879
#	160644
#	187436
#	206227
#	222220
#	251907
#	270668
#	288765
#	306664
#	321744
#	339128
#
# Disc length: 4784 seconds
#
# Revision: 0
# Processed by: cddbd v1.4PL0 Copyright (c) Steve Scherf et al.
# Submitted via: Feurio! 1.65 - http://www.feurio.com
#
DISCID=d912ae0f
DTITLE=Jack Falk Project - Best of
DYEAR=2001
DGENRE=Blues
TTITLE0=5 String Blues
TTITLE1=Blues Guitar Tributes
TTITLE2=Funkman's Blues
TTITLE3=Homesick Blues
TTITLE4=Jack's Blues
TTITLE5=No Ganja Blues
TTITLE6=Transient Blues
TTITLE7=Tribute to Alvin Lee
TTITLE8=Tribute to Eric Clapton
TTITLE9=Tribute to Jimi Hendrix
TTITLE10=Tribute to Jimmy Page
TTITLE11=Tribute to Stevie Ray Vaughan
TTITLE12=Tribute to Robin Trower
TTITLE13=Southern Friend Blues
TTITLE14=Rumor Going Round
EXTD=
EXTT0=
EXTT1=
EXTT2=
EXTT3=
EXTT4=
EXTT5=
EXTT6=
EXTT7=
EXTT8=
EXTT9=
EXTT10=
EXTT11=
EXTT12=
EXTT13=
EXTT14=
PLAYORDER=
